<svg width="147" height="20" viewBox="0 0 147 20" fill="none" xmlns="http://www.w3.org/2000/svg">
<path d="M6.4878 19C6.31447 19 6.1758 18.948 6.0718 18.844C5.9678 18.74 5.9158 18.6014 5.9158 18.428V2.36004H0.767801C0.594467 2.36004 0.455801 2.30804 0.351801 2.20404C0.247801 2.10004 0.195801 1.96137 0.195801 1.78804V1.39804C0.195801 1.22471 0.247801 1.08604 0.351801 0.98204C0.455801 0.860706 0.594467 0.800039 0.767801 0.800039H12.6758C12.8665 0.800039 13.0138 0.852039 13.1178 0.95604C13.2218 1.06004 13.2738 1.20737 13.2738 1.39804V1.78804C13.2738 1.96137 13.2131 2.10004 13.0918 2.20404C12.9878 2.30804 12.8491 2.36004 12.6758 2.36004H7.5538V18.428C7.5538 18.6014 7.49313 18.74 7.3718 18.844C7.2678 18.948 7.12913 19 6.9558 19H6.4878Z" fill="white"/>
<path d="M15.4225 19C15.2491 19 15.1105 18.948 15.0065 18.844C14.9025 18.74 14.8505 18.6014 14.8505 18.428V1.39804C14.8505 1.22471 14.9025 1.08604 15.0065 0.98204C15.1105 0.860706 15.2491 0.800039 15.4225 0.800039H21.4805C23.3525 0.800039 24.8171 1.24204 25.8745 2.12604C26.9318 3.01004 27.4605 4.31871 27.4605 6.05204C27.4605 7.42137 27.1225 8.53071 26.4465 9.38004C25.7705 10.212 24.7998 10.7754 23.5345 11.07L27.7205 18.194C27.7725 18.298 27.7985 18.3934 27.7985 18.48C27.7985 18.6187 27.7465 18.74 27.6425 18.844C27.5385 18.948 27.4171 19 27.2785 19H26.9665C26.7065 19 26.5071 18.948 26.3685 18.844C26.2471 18.7227 26.1171 18.5407 25.9785 18.298L21.8445 11.304H16.4885V18.428C16.4885 18.6014 16.4278 18.74 16.3065 18.844C16.2025 18.948 16.0638 19 15.8905 19H15.4225ZM21.3505 9.74404C22.8585 9.74404 23.9765 9.44071 24.7045 8.83404C25.4498 8.21004 25.8225 7.28271 25.8225 6.05204C25.8225 4.82137 25.4498 3.90271 24.7045 3.29604C23.9765 2.67204 22.8585 2.36004 21.3505 2.36004H16.4885V9.74404H21.3505Z" fill="white"/>
<path d="M28.6213 19C28.4827 19 28.3613 18.948 28.2573 18.844C28.1533 18.74 28.1013 18.6187 28.1013 18.48L28.1533 18.194L34.7313 1.32004C34.87 0.973372 35.1213 0.800039 35.4853 0.800039H36.3693C36.7333 0.800039 36.9847 0.973372 37.1233 1.32004L43.7013 18.194L43.7533 18.48C43.7533 18.6187 43.7013 18.74 43.5973 18.844C43.4933 18.948 43.372 19 43.2333 19H42.7133C42.5573 19 42.4273 18.9567 42.3233 18.87C42.2367 18.7834 42.176 18.6967 42.1413 18.61L40.5293 14.45H31.3253L29.7133 18.61C29.6787 18.6967 29.6093 18.7834 29.5053 18.87C29.4187 18.9567 29.2973 19 29.1413 19H28.6213ZM39.9053 12.89L35.9273 2.64604L31.9493 12.89H39.9053Z" fill="white"/>
<path d="M51.1288 19.26C48.8755 19.26 47.1855 18.6274 46.0588 17.362C44.9321 16.0794 44.3255 14.3634 44.2388 12.214C44.2215 11.746 44.2128 10.9834 44.2128 9.92604C44.2128 8.85137 44.2215 8.07137 44.2388 7.58604C44.3255 5.43671 44.9321 3.72937 46.0588 2.46404C47.1855 1.18137 48.8755 0.540039 51.1288 0.540039C52.6715 0.540039 53.9541 0.826039 54.9768 1.39804C55.9995 1.95271 56.7535 2.66337 57.2388 3.53004C57.7415 4.37937 58.0188 5.25471 58.0708 6.15604V6.20804C58.0708 6.34671 58.0188 6.45937 57.9148 6.54604C57.8108 6.63271 57.6808 6.67604 57.5248 6.67604H57.0048C56.6928 6.67604 56.5021 6.49404 56.4328 6.13004C56.1035 4.65671 55.5055 3.61671 54.6388 3.01004C53.7721 2.40337 52.6021 2.10004 51.1288 2.10004C49.4995 2.10004 48.2341 2.55937 47.3328 3.47804C46.4315 4.39671 45.9461 5.80937 45.8768 7.71604C45.8595 8.18404 45.8508 8.90337 45.8508 9.87404C45.8508 10.8447 45.8595 11.5814 45.8768 12.084C45.9461 13.9907 46.4315 15.4034 47.3328 16.322C48.2341 17.2407 49.4995 17.7 51.1288 17.7C52.6021 17.7 53.7721 17.3967 54.6388 16.79C55.5055 16.1834 56.1035 15.1434 56.4328 13.67C56.5021 13.306 56.6928 13.124 57.0048 13.124H57.5248C57.6808 13.124 57.8108 13.176 57.9148 13.28C58.0361 13.3667 58.0881 13.488 58.0708 13.644C58.0188 14.5454 57.7415 15.4294 57.2388 16.296C56.7535 17.1454 55.9995 17.856 54.9768 18.428C53.9541 18.9827 52.6715 19.26 51.1288 19.26Z" fill="white"/>
<path d="M60.9143 19C60.741 19 60.6023 18.948 60.4983 18.844C60.3943 18.74 60.3423 18.6014 60.3423 18.428V1.39804C60.3423 1.22471 60.3943 1.08604 60.4983 0.98204C60.6023 0.860706 60.741 0.800039 60.9143 0.800039H61.3823C61.573 0.800039 61.7203 0.852039 61.8243 0.95604C61.9283 1.06004 61.9803 1.20737 61.9803 1.39804V8.15804L69.8583 1.19004C69.997 1.08604 70.1357 0.999372 70.2743 0.930039C70.4303 0.843372 70.621 0.800039 70.8463 0.800039H71.2623C71.401 0.800039 71.5223 0.852039 71.6263 0.95604C71.7303 1.06004 71.7823 1.18137 71.7823 1.32004C71.7823 1.45871 71.739 1.57137 71.6523 1.65804L62.8383 9.51004L72.1983 18.116C72.3023 18.22 72.3543 18.3414 72.3543 18.48C72.3543 18.6187 72.3023 18.74 72.1983 18.844C72.0943 18.948 71.973 19 71.8343 19H71.3923C71.167 19 70.9763 18.9654 70.8203 18.896C70.6817 18.8094 70.543 18.714 70.4043 18.61L61.9803 10.914V18.428C61.9803 18.6014 61.9197 18.74 61.7983 18.844C61.6943 18.948 61.5557 19 61.3823 19H60.9143Z" fill="white"/>
<path d="M73.7634 19C73.5901 19 73.4341 18.9394 73.2954 18.818C73.1741 18.6794 73.1134 18.5234 73.1134 18.35V1.45004C73.1134 1.25937 73.1741 1.10337 73.2954 0.98204C73.4341 0.860706 73.5901 0.800039 73.7634 0.800039H76.5194C76.9527 0.800039 77.2474 0.964705 77.4034 1.29404L83.7474 11.278V1.45004C83.7474 1.25937 83.8081 1.10337 83.9294 0.98204C84.0681 0.860706 84.2241 0.800039 84.3974 0.800039H87.5174C87.7081 0.800039 87.8641 0.860706 87.9854 0.98204C88.1067 1.10337 88.1674 1.25937 88.1674 1.45004V18.324C88.1674 18.5147 88.1067 18.6794 87.9854 18.818C87.8641 18.9394 87.7081 19 87.5174 19H84.7354C84.3541 19 84.0681 18.8354 83.8774 18.506L77.5334 8.88604V18.35C77.5334 18.5234 77.4727 18.6794 77.3514 18.818C77.2301 18.9394 77.0741 19 76.8834 19H73.7634Z" fill="white"/>
<path d="M90.8909 19C90.7176 19 90.5616 18.9394 90.4229 18.818C90.3016 18.6794 90.2409 18.5234 90.2409 18.35V1.45004C90.2409 1.25937 90.3016 1.10337 90.4229 0.98204C90.5616 0.860706 90.7176 0.800039 90.8909 0.800039H94.3749C94.5656 0.800039 94.7216 0.860706 94.8429 0.98204C94.9816 1.10337 95.0509 1.25937 95.0509 1.45004V18.35C95.0509 18.5407 94.9816 18.6967 94.8429 18.818C94.7216 18.9394 94.5656 19 94.3749 19H90.8909Z" fill="white"/>
<path d="M97.7606 19C97.5873 19 97.4313 18.9394 97.2926 18.818C97.1713 18.6794 97.1106 18.5234 97.1106 18.35V1.45004C97.1106 1.25937 97.1713 1.10337 97.2926 0.98204C97.4313 0.860706 97.5873 0.800039 97.7606 0.800039H100.517C100.95 0.800039 101.245 0.964705 101.401 1.29404L107.745 11.278V1.45004C107.745 1.25937 107.805 1.10337 107.927 0.98204C108.065 0.860706 108.221 0.800039 108.395 0.800039H111.515C111.705 0.800039 111.861 0.860706 111.983 0.98204C112.104 1.10337 112.165 1.25937 112.165 1.45004V18.324C112.165 18.5147 112.104 18.6794 111.983 18.818C111.861 18.9394 111.705 19 111.515 19H108.733C108.351 19 108.065 18.8354 107.875 18.506L101.531 8.88604V18.35C101.531 18.5234 101.47 18.6794 101.349 18.818C101.227 18.9394 101.071 19 100.881 19H97.7606Z" fill="white"/>
<path d="M120.53 19.26C119.195 19.26 117.956 19.0347 116.812 18.584C115.685 18.116 114.775 17.4314 114.082 16.53C113.406 15.6287 113.051 14.5454 113.016 13.28C113.016 13.124 113.068 12.994 113.172 12.89C113.276 12.7687 113.415 12.708 113.588 12.708H117.098C117.323 12.708 117.497 12.7687 117.618 12.89C117.757 13.0114 117.878 13.1934 117.982 13.436C118.259 14.8227 119.152 15.516 120.66 15.516C121.527 15.516 122.194 15.23 122.662 14.658C123.13 14.086 123.364 13.2627 123.364 12.188V4.67404H114.94C114.767 4.67404 114.611 4.61337 114.472 4.49204C114.351 4.35337 114.29 4.19737 114.29 4.02404V1.45004C114.29 1.25937 114.351 1.10337 114.472 0.98204C114.611 0.860706 114.767 0.800039 114.94 0.800039H127.524C127.715 0.800039 127.871 0.860706 127.992 0.98204C128.131 1.10337 128.2 1.25937 128.2 1.45004V12.318C128.2 13.7914 127.879 15.048 127.238 16.088C126.597 17.128 125.695 17.9167 124.534 18.454C123.373 18.9914 122.038 19.26 120.53 19.26Z" fill="white"/>
<path d="M128.675 19C128.537 19 128.407 18.948 128.285 18.844C128.181 18.7227 128.129 18.5927 128.129 18.454C128.129 18.35 128.138 18.272 128.155 18.22L134.265 1.52804C134.317 1.32004 134.43 1.14671 134.603 1.00804C134.777 0.869372 135.002 0.800039 135.279 0.800039H139.127C139.405 0.800039 139.63 0.869372 139.803 1.00804C139.977 1.14671 140.089 1.32004 140.141 1.52804L146.225 18.22L146.277 18.454C146.277 18.5927 146.217 18.7227 146.095 18.844C145.991 18.948 145.861 19 145.705 19H142.507C142.091 19 141.814 18.818 141.675 18.454L140.661 15.802H133.719L132.731 18.454C132.593 18.818 132.307 19 131.873 19H128.675ZM139.621 12.058L137.203 5.19404L134.785 12.058H139.621Z" fill="white"/>
</svg>
