<svg width="397" height="88" viewBox="0 0 397 88" fill="none" xmlns="http://www.w3.org/2000/svg">
<g filter="url(#filter0_d_446_495)">
<rect x="311.194" y="73" width="74.8057" height="4" fill="#13D9EE"/>
</g>
<g filter="url(#filter1_d_446_495)">
<rect x="236.389" y="73" width="74.8057" height="4" fill="#7F0CE5"/>
</g>
<g filter="url(#filter2_d_446_495)">
<rect x="160.611" y="73" width="75.7772" height="4" fill="#FF3735"/>
</g>
<g filter="url(#filter3_d_446_495)">
<rect x="85.8057" y="73" width="74.8057" height="4" fill="#FFD401"/>
</g>
<g filter="url(#filter4_d_446_495)">
<rect x="11" y="73" width="74.8057" height="4" fill="#18DB6B"/>
</g>
<path d="M24.3673 48.3194C23.9164 48.3194 23.5557 48.1833 23.2852 47.9111C23.0146 47.6389 22.8794 47.2759 22.8794 46.8222V4.76389H9.48794C9.03705 4.76389 8.67634 4.62778 8.4058 4.35556C8.13527 4.08333 8 3.72037 8 3.26666V2.24583C8 1.79213 8.13527 1.42917 8.4058 1.15695C8.67634 0.839352 9.03705 0.680555 9.48794 0.680555H40.4641C40.9601 0.680555 41.3433 0.816667 41.6139 1.08889C41.8844 1.36111 42.0197 1.74676 42.0197 2.24583V3.26666C42.0197 3.72037 41.8618 4.08333 41.5462 4.35556C41.2757 4.62778 40.915 4.76389 40.4641 4.76389H27.1403V46.8222C27.1403 47.2759 26.9825 47.6389 26.6669 47.9111C26.3963 48.1833 26.0356 48.3194 25.5847 48.3194H24.3673Z" fill="white"/>
<path d="M47.6089 48.3194C47.158 48.3194 46.7973 48.1833 46.5268 47.9111C46.2563 47.6389 46.121 47.2759 46.121 46.8222V2.24583C46.121 1.79213 46.2563 1.42917 46.5268 1.15695C46.7973 0.839352 47.158 0.680555 47.6089 0.680555H63.3675C68.2372 0.680555 72.0472 1.8375 74.7976 4.15139C77.548 6.46528 78.9233 9.89074 78.9233 14.4278C78.9233 18.012 78.044 20.9157 76.2855 23.1389C74.5271 25.3167 72.0021 26.7912 68.7106 27.5625L79.5996 46.2097C79.7349 46.4819 79.8025 46.7315 79.8025 46.9583C79.8025 47.3213 79.6672 47.6389 79.3967 47.9111C79.1262 48.1833 78.8105 48.3194 78.4498 48.3194H77.6382C76.9619 48.3194 76.4434 48.1833 76.0826 47.9111C75.767 47.5935 75.4289 47.1171 75.0681 46.4819L64.3144 28.175H50.3819V46.8222C50.3819 47.2759 50.2241 47.6389 49.9085 47.9111C49.6379 48.1833 49.2772 48.3194 48.8263 48.3194H47.6089ZM63.0294 24.0917C66.9521 24.0917 69.8604 23.2977 71.7541 21.7097C73.6929 20.0764 74.6623 17.6491 74.6623 14.4278C74.6623 11.2065 73.6929 8.80185 71.7541 7.21389C69.8604 5.58055 66.9521 4.76389 63.0294 4.76389H50.3819V24.0917H63.0294Z" fill="white"/>
<path d="M81.943 48.3194C81.5823 48.3194 81.2666 48.1833 80.9961 47.9111C80.7256 47.6389 80.5903 47.3213 80.5903 46.9583L80.7256 46.2097L97.8369 2.04167C98.1976 1.13426 98.8514 0.680555 99.7982 0.680555H102.098C103.045 0.680555 103.698 1.13426 104.059 2.04167L121.17 46.2097L121.306 46.9583C121.306 47.3213 121.17 47.6389 120.9 47.9111C120.629 48.1833 120.314 48.3194 119.953 48.3194H118.6C118.195 48.3194 117.856 48.206 117.586 47.9792C117.36 47.7523 117.203 47.5255 117.112 47.2986L112.919 36.4097H88.9769L84.7836 47.2986C84.6934 47.5255 84.5131 47.7523 84.2425 47.9792C84.0171 48.206 83.7015 48.3194 83.2957 48.3194H81.943ZM111.296 32.3264L100.948 5.5125L90.6001 32.3264H111.296Z" fill="white"/>
<path d="M140.491 49C134.63 49 130.234 47.344 127.303 44.0319C124.372 40.6745 122.794 36.1829 122.569 30.5569C122.523 29.3319 122.501 27.3356 122.501 24.5681C122.501 21.7551 122.523 19.7134 122.569 18.4431C122.794 12.8171 124.372 8.34815 127.303 5.03611C130.234 1.6787 134.63 0 140.491 0C144.504 0 147.841 0.748611 150.501 2.24583C153.161 3.69768 155.123 5.55787 156.385 7.82639C157.693 10.0495 158.414 12.3407 158.55 14.7V14.8361C158.55 15.1991 158.414 15.494 158.144 15.7208C157.873 15.9477 157.535 16.0611 157.129 16.0611H155.777C154.965 16.0611 154.469 15.5847 154.289 14.6319C153.432 10.7755 151.876 8.05324 149.622 6.46528C147.367 4.87732 144.324 4.08333 140.491 4.08333C136.253 4.08333 132.962 5.28565 130.617 7.69028C128.272 10.0949 127.01 13.7926 126.829 18.7833C126.784 20.0083 126.762 21.8912 126.762 24.4319C126.762 26.9727 126.784 28.9009 126.829 30.2167C127.01 35.2074 128.272 38.9051 130.617 41.3097C132.962 43.7144 136.253 44.9167 140.491 44.9167C144.324 44.9167 147.367 44.1227 149.622 42.5347C151.876 40.9468 153.432 38.2245 154.289 34.3681C154.469 33.4153 154.965 32.9389 155.777 32.9389H157.129C157.535 32.9389 157.873 33.075 158.144 33.3472C158.459 33.5741 158.595 33.8917 158.55 34.3C158.414 36.6593 157.693 38.9731 156.385 41.2417C155.123 43.4648 153.161 45.325 150.501 46.8222C147.841 48.2741 144.504 49 140.491 49Z" fill="white"/>
<path d="M165.946 48.3194C165.496 48.3194 165.135 48.1833 164.864 47.9111C164.594 47.6389 164.459 47.2759 164.459 46.8222V2.24583C164.459 1.79213 164.594 1.42917 164.864 1.15695C165.135 0.839352 165.496 0.680555 165.946 0.680555H167.164C167.66 0.680555 168.043 0.816667 168.314 1.08889C168.584 1.36111 168.719 1.74676 168.719 2.24583V19.9403L189.212 1.70139C189.573 1.42917 189.934 1.20231 190.295 1.02083C190.7 0.793981 191.196 0.680555 191.782 0.680555H192.865C193.225 0.680555 193.541 0.816667 193.811 1.08889C194.082 1.36111 194.217 1.67871 194.217 2.04167C194.217 2.40463 194.105 2.69954 193.879 2.92639L170.951 23.4792L195.299 46.0056C195.57 46.2778 195.705 46.5954 195.705 46.9583C195.705 47.3213 195.57 47.6389 195.299 47.9111C195.029 48.1833 194.713 48.3194 194.353 48.3194H193.203C192.617 48.3194 192.121 48.2287 191.715 48.0472C191.354 47.8204 190.993 47.5708 190.633 47.2986L168.719 27.1542V46.8222C168.719 47.2759 168.562 47.6389 168.246 47.9111C167.975 48.1833 167.615 48.3194 167.164 48.3194H165.946Z" fill="white"/>
<path d="M199.371 48.3194C198.92 48.3194 198.514 48.1607 198.153 47.8431C197.838 47.4801 197.68 47.0718 197.68 46.6181V2.38195C197.68 1.88287 197.838 1.47454 198.153 1.15695C198.514 0.839352 198.92 0.680555 199.371 0.680555H206.54C207.667 0.680555 208.433 1.11157 208.839 1.97361L225.342 28.1069V2.38195C225.342 1.88287 225.5 1.47454 225.815 1.15695C226.176 0.839352 226.582 0.680555 227.033 0.680555H235.149C235.645 0.680555 236.051 0.839352 236.366 1.15695C236.682 1.47454 236.84 1.88287 236.84 2.38195V46.55C236.84 47.0491 236.682 47.4801 236.366 47.8431C236.051 48.1607 235.645 48.3194 235.149 48.3194H227.912C226.92 48.3194 226.176 47.8884 225.68 47.0264L209.177 21.8458V46.6181C209.177 47.0718 209.02 47.4801 208.704 47.8431C208.388 48.1607 207.983 48.3194 207.487 48.3194H199.371Z" fill="white"/>
<path d="M243.924 48.3194C243.473 48.3194 243.068 48.1607 242.707 47.8431C242.391 47.4801 242.233 47.0718 242.233 46.6181V2.38195C242.233 1.88287 242.391 1.47454 242.707 1.15695C243.068 0.839352 243.473 0.680555 243.924 0.680555H252.987C253.483 0.680555 253.889 0.839352 254.204 1.15695C254.565 1.47454 254.746 1.88287 254.746 2.38195V46.6181C254.746 47.1171 254.565 47.5255 254.204 47.8431C253.889 48.1607 253.483 48.3194 252.987 48.3194H243.924Z" fill="white"/>
<path d="M261.794 48.3194C261.343 48.3194 260.938 48.1607 260.577 47.8431C260.261 47.4801 260.103 47.0718 260.103 46.6181V2.38195C260.103 1.88287 260.261 1.47454 260.577 1.15695C260.938 0.839352 261.343 0.680555 261.794 0.680555H268.963C270.091 0.680555 270.857 1.11157 271.263 1.97361L287.766 28.1069V2.38195C287.766 1.88287 287.923 1.47454 288.239 1.15695C288.6 0.839352 289.005 0.680555 289.456 0.680555H297.572C298.068 0.680555 298.474 0.839352 298.79 1.15695C299.105 1.47454 299.263 1.88287 299.263 2.38195V46.55C299.263 47.0491 299.105 47.4801 298.79 47.8431C298.474 48.1607 298.068 48.3194 297.572 48.3194H290.336C289.344 48.3194 288.6 47.8884 288.104 47.0264L271.601 21.8458V46.6181C271.601 47.0718 271.443 47.4801 271.128 47.8431C270.812 48.1607 270.406 48.3194 269.91 48.3194H261.794Z" fill="white"/>
<path d="M321.024 49C317.552 49 314.329 48.4102 311.353 47.2306C308.422 46.0056 306.055 44.2134 304.251 41.8542C302.493 39.4949 301.568 36.6593 301.478 33.3472C301.478 32.9389 301.613 32.5986 301.884 32.3264C302.155 32.0088 302.515 31.85 302.966 31.85H312.097C312.683 31.85 313.134 32.0088 313.449 32.3264C313.81 32.644 314.126 33.1204 314.396 33.7556C315.118 37.3852 317.44 39.2 321.362 39.2C323.617 39.2 325.353 38.4514 326.57 36.9542C327.788 35.4569 328.396 33.3019 328.396 30.4889V10.8208H306.483C306.032 10.8208 305.626 10.662 305.266 10.3444C304.95 9.98148 304.792 9.57315 304.792 9.11944V2.38195C304.792 1.88287 304.95 1.47454 305.266 1.15695C305.626 0.839352 306.032 0.680555 306.483 0.680555H339.218C339.714 0.680555 340.12 0.839352 340.435 1.15695C340.796 1.47454 340.976 1.88287 340.976 2.38195V30.8292C340.976 34.6856 340.142 37.975 338.474 40.6972C336.805 43.4194 334.461 45.4838 331.44 46.8903C328.419 48.2968 324.947 49 321.024 49Z" fill="white"/>
<path d="M342.212 48.3194C341.851 48.3194 341.513 48.1833 341.198 47.9111C340.927 47.5935 340.792 47.2532 340.792 46.8903C340.792 46.6181 340.814 46.4139 340.859 46.2778L356.753 2.58611C356.889 2.04167 357.182 1.58796 357.633 1.225C358.083 0.862037 358.67 0.680555 359.391 0.680555H369.401C370.122 0.680555 370.708 0.862037 371.159 1.225C371.61 1.58796 371.903 2.04167 372.038 2.58611L387.865 46.2778L388 46.8903C388 47.2532 387.842 47.5935 387.527 47.9111C387.256 48.1833 386.918 48.3194 386.512 48.3194H378.193C377.111 48.3194 376.39 47.8431 376.029 46.8903L373.391 39.9486H355.333L352.763 46.8903C352.402 47.8431 351.658 48.3194 350.531 48.3194H342.212ZM370.686 30.1486L364.396 12.1819L358.106 30.1486H370.686Z" fill="white"/>
<defs>
<filter id="filter0_d_446_495" x="300.194" y="62" width="96.8057" height="26" filterUnits="userSpaceOnUse" color-interpolation-filters="sRGB">
<feFlood flood-opacity="0" result="BackgroundImageFix"/>
<feColorMatrix in="SourceAlpha" type="matrix" values="0 0 0 0 0 0 0 0 0 0 0 0 0 0 0 0 0 0 127 0" result="hardAlpha"/>
<feMorphology radius="3" operator="dilate" in="SourceAlpha" result="effect1_dropShadow_446_495"/>
<feOffset/>
<feGaussianBlur stdDeviation="4"/>
<feColorMatrix type="matrix" values="0 0 0 0 0.0745098 0 0 0 0 0.85098 0 0 0 0 0.933333 0 0 0 0.3 0"/>
<feBlend mode="normal" in2="BackgroundImageFix" result="effect1_dropShadow_446_495"/>
<feBlend mode="normal" in="SourceGraphic" in2="effect1_dropShadow_446_495" result="shape"/>
</filter>
<filter id="filter1_d_446_495" x="225.389" y="62" width="96.8057" height="26" filterUnits="userSpaceOnUse" color-interpolation-filters="sRGB">
<feFlood flood-opacity="0" result="BackgroundImageFix"/>
<feColorMatrix in="SourceAlpha" type="matrix" values="0 0 0 0 0 0 0 0 0 0 0 0 0 0 0 0 0 0 127 0" result="hardAlpha"/>
<feMorphology radius="3" operator="dilate" in="SourceAlpha" result="effect1_dropShadow_446_495"/>
<feOffset/>
<feGaussianBlur stdDeviation="4"/>
<feColorMatrix type="matrix" values="0 0 0 0 0.498039 0 0 0 0 0.0470588 0 0 0 0 0.898039 0 0 0 0.31 0"/>
<feBlend mode="normal" in2="BackgroundImageFix" result="effect1_dropShadow_446_495"/>
<feBlend mode="normal" in="SourceGraphic" in2="effect1_dropShadow_446_495" result="shape"/>
</filter>
<filter id="filter2_d_446_495" x="149.611" y="62" width="97.7772" height="26" filterUnits="userSpaceOnUse" color-interpolation-filters="sRGB">
<feFlood flood-opacity="0" result="BackgroundImageFix"/>
<feColorMatrix in="SourceAlpha" type="matrix" values="0 0 0 0 0 0 0 0 0 0 0 0 0 0 0 0 0 0 127 0" result="hardAlpha"/>
<feMorphology radius="3" operator="dilate" in="SourceAlpha" result="effect1_dropShadow_446_495"/>
<feOffset/>
<feGaussianBlur stdDeviation="4"/>
<feColorMatrix type="matrix" values="0 0 0 0 1 0 0 0 0 0.215686 0 0 0 0 0.207843 0 0 0 0.29 0"/>
<feBlend mode="normal" in2="BackgroundImageFix" result="effect1_dropShadow_446_495"/>
<feBlend mode="normal" in="SourceGraphic" in2="effect1_dropShadow_446_495" result="shape"/>
</filter>
<filter id="filter3_d_446_495" x="74.8057" y="62" width="96.8057" height="26" filterUnits="userSpaceOnUse" color-interpolation-filters="sRGB">
<feFlood flood-opacity="0" result="BackgroundImageFix"/>
<feColorMatrix in="SourceAlpha" type="matrix" values="0 0 0 0 0 0 0 0 0 0 0 0 0 0 0 0 0 0 127 0" result="hardAlpha"/>
<feMorphology radius="3" operator="dilate" in="SourceAlpha" result="effect1_dropShadow_446_495"/>
<feOffset/>
<feGaussianBlur stdDeviation="4"/>
<feColorMatrix type="matrix" values="0 0 0 0 1 0 0 0 0 0.831373 0 0 0 0 0.00392157 0 0 0 0.22 0"/>
<feBlend mode="normal" in2="BackgroundImageFix" result="effect1_dropShadow_446_495"/>
<feBlend mode="normal" in="SourceGraphic" in2="effect1_dropShadow_446_495" result="shape"/>
</filter>
<filter id="filter4_d_446_495" x="0" y="62" width="96.8057" height="26" filterUnits="userSpaceOnUse" color-interpolation-filters="sRGB">
<feFlood flood-opacity="0" result="BackgroundImageFix"/>
<feColorMatrix in="SourceAlpha" type="matrix" values="0 0 0 0 0 0 0 0 0 0 0 0 0 0 0 0 0 0 127 0" result="hardAlpha"/>
<feMorphology radius="3" operator="dilate" in="SourceAlpha" result="effect1_dropShadow_446_495"/>
<feOffset/>
<feGaussianBlur stdDeviation="4"/>
<feColorMatrix type="matrix" values="0 0 0 0 0.0941176 0 0 0 0 0.858824 0 0 0 0 0.419608 0 0 0 0.26 0"/>
<feBlend mode="normal" in2="BackgroundImageFix" result="effect1_dropShadow_446_495"/>
<feBlend mode="normal" in="SourceGraphic" in2="effect1_dropShadow_446_495" result="shape"/>
</filter>
</defs>
</svg>
